<mxfile host="65bd71144e" modified="2020-11-11T07:12:42.137Z" agent="5.0 (Windows NT 10.0; Win64; x64) AppleWebKit/537.36 (KHTML, like Gecko) Code/1.50.0 Chrome/83.0.4103.122 Electron/9.2.1 Safari/537.36" version="13.6.5" etag="QN-LvY3lhjDUIAfH_-K2">
    <diagram id="iGyDul3UZpF9Ww5Oi-HZ" name="第 1 页">
        <mxGraphModel dx="903" dy="575" grid="1" gridSize="10" guides="1" tooltips="1" connect="1" arrows="1" fold="1" page="1" pageScale="1" pageWidth="827" pageHeight="1169" math="0" shadow="0">
            <root>
                <mxCell id="0"/>
                <mxCell id="1" parent="0"/>
                <mxCell id="2" value="" style="shape=corner;whiteSpace=wrap;html=1;flipH=0;dx=30;dy=40;" vertex="1" parent="1">
                    <mxGeometry x="414" y="140" width="270" height="80" as="geometry"/>
                </mxCell>
                <mxCell id="3" value="" style="verticalLabelPosition=bottom;html=1;verticalAlign=top;align=center;shape=mxgraph.floorplan.room;fillColor=#000000;" vertex="1" parent="1">
                    <mxGeometry x="180" y="180" width="100" height="100" as="geometry"/>
                </mxCell>
                <mxCell id="5" value="" style="strokeWidth=1;shadow=0;dashed=0;align=center;html=1;shape=mxgraph.mockup.text.rrect;rSize=0;strokeColor=#666666;" vertex="1" parent="1">
                    <mxGeometry x="210" y="340" width="500" height="25" as="geometry"/>
                </mxCell>
                <mxCell id="6" value="Button 2" style="strokeColor=inherit;fillColor=inherit;gradientColor=inherit;strokeWidth=1;shadow=0;dashed=0;align=center;html=1;shape=mxgraph.mockup.text.rrect;rSize=0;fontSize=17;fontColor=#0000ff;" vertex="1" parent="5">
                    <mxGeometry x="125" width="125" height="25" as="geometry"/>
                </mxCell>
                <mxCell id="7" value="Button 3" style="strokeColor=inherit;fillColor=inherit;gradientColor=inherit;strokeWidth=1;shadow=0;dashed=0;align=center;html=1;shape=mxgraph.mockup.text.rrect;rSize=0;fontSize=17;fontColor=#0000ff;" vertex="1" parent="5">
                    <mxGeometry x="250" width="125" height="25" as="geometry"/>
                </mxCell>
                <mxCell id="8" value="Button 4" style="strokeColor=inherit;fillColor=inherit;gradientColor=inherit;strokeWidth=1;shadow=0;dashed=0;align=center;html=1;shape=mxgraph.mockup.text.rrect;rSize=0;fontSize=17;fontColor=#0000ff;" vertex="1" parent="5">
                    <mxGeometry x="375" width="125" height="25" as="geometry"/>
                </mxCell>
                <mxCell id="9" value="Button 1" style="strokeWidth=1;shadow=0;dashed=0;align=center;html=1;shape=mxgraph.mockup.text.rrect;rSize=0;fontSize=17;fontColor=#ffffff;fillColor=#008cff;strokeColor=#008cff;part=0;" vertex="1" parent="5">
                    <mxGeometry width="125" height="25" as="geometry"/>
                </mxCell>
                <mxCell id="10" value="fG2yQ23" style="strokeWidth=1;shadow=0;dashed=0;align=center;html=1;shape=mxgraph.mockup.text.captcha;fontColor=#666666;fontSize=25;strokeColor=#666666;mainText=;cloneable=1;editable=1;metaEdit=0;allowArrows=1;" vertex="1" parent="1">
                    <mxGeometry x="60" y="328" width="150" height="50" as="geometry"/>
                </mxCell>
            </root>
        </mxGraphModel>
    </diagram>
</mxfile>